<?xml version="1.0" encoding="UTF-8"?>
<!DOCTYPE svg PUBLIC "-//W3C//DTD SVG 1.1//EN" "http://www.w3.org/Graphics/SVG/1.1/DTD/svg11.dtd">
<svg version="1.1" xmlns="http://www.w3.org/2000/svg" xmlns:xlink="http://www.w3.org/1999/xlink" x="0" y="0" width="500" height="500" viewBox="0, 0, 500, 500">
  <g id="Background">
    <rect x="0" y="0" width="500" height="500" fill="#000000" fill-opacity="0"/>
  </g>
  <defs>
    <linearGradient id="Gradient_1" gradientUnits="userSpaceOnUse" x1="105.558" y1="236" x2="405.558" y2="236">
      <stop offset="0" stop-color="#005AFF"/>
      <stop offset="0.461" stop-color="#1B799C"/>
      <stop offset="1" stop-color="#03B998"/>
    </linearGradient>
    <linearGradient id="Gradient_2" gradientUnits="userSpaceOnUse" x1="0" y1="250" x2="500" y2="250">
      <stop offset="0" stop-color="#005AFF"/>
      <stop offset="0.461" stop-color="#1B799C"/>
      <stop offset="1" stop-color="#03B998"/>
    </linearGradient>
    <linearGradient id="Gradient_3" gradientUnits="userSpaceOnUse" x1="166.217" y1="261.021" x2="335.75" y2="261.021">
      <stop offset="0" stop-color="#2BA4FF"/>
      <stop offset="0.461" stop-color="#1B799C"/>
      <stop offset="1" stop-color="#03B998"/>
    </linearGradient>
    <clipPath id="Clip_1">
      <path d="M223.434,160.215 L224.022,160.35 L333.721,197.651 C335.281,198.181 336.122,199.888 335.592,201.446 L331.052,214.797 C330.521,216.355 328.813,217.196 327.255,216.666 L323.852,215.51 L315.39,240.394 C311.282,252.474 302.447,255.033 298.673,256.123 C295.683,256.989 273.487,261.825 264.992,263.667 L262.52,270.944 L284.717,297.527 C289.822,303.637 292.511,307.679 288.443,319.639 L281.006,341.518 L284.408,342.676 C285.968,343.206 286.809,344.915 286.278,346.473 L281.741,359.821 C281.211,361.38 279.501,362.221 277.945,361.692 L168.245,324.391 C166.687,323.859 165.845,322.152 166.376,320.594 L170.913,307.244 C171.444,305.686 173.154,304.845 174.711,305.375 L178.115,306.532 L185.4,285.105 C189.508,273.024 198.345,270.468 202.118,269.377 C205.106,268.514 227.302,263.677 235.796,261.834 L238.271,254.557 L216.072,227.975 C210.969,221.862 208.278,217.823 212.345,205.861 L220.959,180.523 L217.555,179.366 C215.998,178.835 215.157,177.128 215.686,175.57 L220.225,162.22 C220.935,160.57 221.779,160.334 223.434,160.215 z M231.156,183.991 L222.542,209.329 C221.345,212.845 220.92,215.201 221.239,216.532 C221.504,217.641 222.485,218.852 224.338,221.069 L224.411,221.158 L248.477,249.975 C249.68,251.417 250.045,253.381 249.441,255.16 L245.012,268.185 C244.404,269.975 242.899,271.316 241.052,271.716 C227.908,274.559 207.489,279.036 205.109,279.724 C202.065,280.605 197.896,281.812 195.596,288.574 L188.312,310 L270.809,338.051 L278.247,316.17 C279.443,312.655 279.871,310.298 279.551,308.967 C279.285,307.858 278.304,306.647 276.452,304.43 L252.313,275.526 C251.111,274.083 250.744,272.12 251.349,270.341 L255.777,257.317 C256.386,255.525 257.892,254.185 259.74,253.785 C272.883,250.944 293.302,246.466 295.681,245.777 C298.725,244.896 302.893,243.691 305.192,236.927 L313.655,212.042 L231.156,183.991 z"/>
    </clipPath>
    <filter id="Shadow_2">
      <feGaussianBlur in="SourceAlpha" stdDeviation="1.5"/>
      <feOffset dx="0" dy="0" result="offsetblur"/>
      <feFlood flood-color="#D5D5D5"/>
      <feComposite in2="offsetblur" operator="in"/>
    </filter>
    <linearGradient id="Gradient_4" gradientUnits="userSpaceOnUse" x1="87" y1="250" x2="337.054" y2="250">
      <stop offset="0" stop-color="#2BA4FF"/>
      <stop offset="0.461" stop-color="#1B799C"/>
      <stop offset="1" stop-color="#03B998"/>
    </linearGradient>
    <clipPath id="Clip_3">
      <path d="M252.15,77.829 C253.276,77.981 254.182,78.596 255.063,79.26 L285.187,103.939 C288.567,106.705 288.603,111.28 285.274,114.102 L255.567,139.283 C252.238,142.105 249.481,140.844 249.445,136.478 L249.327,122.414 C239.065,122.467 229.066,123.652 219.449,125.856 C219.378,125.874 219.307,125.901 219.233,125.917 C218.576,126.069 217.919,126.227 217.267,126.388 C217.24,126.395 217.211,126.397 217.184,126.403 C173.102,137.311 137.379,169.649 121.761,211.684 C121.625,212.05 121.491,212.417 121.358,212.786 C121.073,213.571 120.794,214.358 120.524,215.148 C120.424,215.445 120.329,215.74 120.23,216.036 C115.706,229.608 113.248,244.118 113.248,259.19 C113.248,274.231 115.695,288.71 120.2,302.257 C120.469,303.069 120.754,303.878 121.037,304.688 C139.831,357.811 190.556,395.975 250.034,395.975 C255.193,395.975 260.298,395.691 265.346,395.134 C265.376,395.13 265.406,395.123 265.436,395.118 C268.185,394.803 270.965,394.401 273.696,393.918 C273.846,393.891 273.994,393.883 274.142,393.862 C285.727,391.808 296.973,388.268 307.757,383.239 C308.151,383.056 308.548,382.895 308.946,382.757 C309.321,382.525 309.709,382.31 310.111,382.114 C312.596,380.902 315.079,379.596 317.487,378.231 C323.785,374.667 331.783,376.881 335.351,383.181 C338.918,389.481 336.701,397.478 330.401,401.045 C327.528,402.672 324.565,404.228 321.598,405.676 C321.129,405.905 320.653,406.103 320.168,406.27 C319.742,406.533 319.3,406.782 318.834,406.999 C297.211,417.078 274.064,422.191 250.034,422.191 C240.903,422.191 231.887,421.434 223.053,419.972 C222.98,419.96 222.905,419.955 222.83,419.944 C222.729,419.926 222.628,419.906 222.527,419.887 C189.449,414.298 158.977,398.65 134.775,374.447 C132.404,372.077 130.126,369.64 127.92,367.152 C127.775,367 127.621,366.862 127.481,366.703 C125.301,364.223 123.17,361.646 121.154,359.044 C121.083,358.953 121.027,358.855 120.957,358.763 C100.322,332.127 88.561,299.968 87.182,265.954 C87.159,265.718 87.128,265.484 87.119,265.243 C87.042,263.191 87,261.111 87,259.059 C87,257.807 87.015,256.541 87.044,255.295 C87.051,254.999 87.082,254.711 87.108,254.421 C88.173,217.089 101.738,181.899 125.799,153.665 C125.899,153.547 125.995,153.425 126.096,153.307 C126.113,153.287 126.13,153.272 126.147,153.254 C128.889,150.056 131.763,146.945 134.775,143.934 C165.344,113.366 205.914,96.442 249.107,96.203 L248.989,82.167 C249.006,80.586 249.33,78.346 251.178,77.884 C251.493,77.805 251.826,77.848 252.15,77.829 z"/>
    </clipPath>
    <filter id="Shadow_4">
      <feGaussianBlur in="SourceAlpha" stdDeviation="1.5"/>
      <feOffset dx="0" dy="0" result="offsetblur"/>
      <feFlood flood-color="#D5D5D5"/>
      <feComposite in2="offsetblur" operator="in"/>
    </filter>
    <linearGradient id="Gradient_5" gradientUnits="userSpaceOnUse" x1="379.635" y1="217.716" x2="408.378" y2="217.716">
      <stop offset="0" stop-color="#07B699"/>
      <stop offset="1" stop-color="#03B998"/>
    </linearGradient>
    <clipPath id="Clip_5">
      <path d="M392.641,200.214 C398.568,200.387 403.155,203.824 405.227,209.328 C406.232,212.46 407.154,215.671 407.969,218.872 C409.757,225.885 405.519,233.022 398.504,234.81 C397.419,235.086 396.328,235.219 395.258,235.219 C389.408,235.219 384.077,231.275 382.565,225.345 C381.879,222.654 381.105,219.955 380.263,217.323 C378.055,210.429 381.854,203.05 388.749,200.842 C390.887,200.274 389.602,200.546 392.641,200.214 z"/>
    </clipPath>
    <filter id="Shadow_6">
      <feGaussianBlur in="SourceAlpha" stdDeviation="1.5"/>
      <feOffset dx="0" dy="0" result="offsetblur"/>
      <feFlood flood-color="#D5D5D5"/>
      <feComposite in2="offsetblur" operator="in"/>
    </filter>
    <linearGradient id="Gradient_6" gradientUnits="userSpaceOnUse" x1="344.049" y1="360.701" x2="376.447" y2="360.701">
      <stop offset="0" stop-color="#07B699"/>
      <stop offset="1" stop-color="#03B998"/>
    </linearGradient>
    <clipPath id="Clip_7">
      <path d="M363.648,344.232 C366.787,344.312 369.476,345.521 371.913,347.421 C377.388,352.155 377.988,360.433 373.255,365.91 C371.099,368.408 368.835,370.868 366.532,373.225 C363.966,375.852 360.562,377.172 357.155,377.172 C353.853,377.172 350.547,375.931 347.997,373.44 C342.818,368.379 342.722,360.081 347.781,354.903 C349.715,352.926 351.613,350.859 353.426,348.763 C356.544,345.37 359.206,344.555 363.648,344.232 z"/>
    </clipPath>
    <filter id="Shadow_8">
      <feGaussianBlur in="SourceAlpha" stdDeviation="1.5"/>
      <feOffset dx="0" dy="0" result="offsetblur"/>
      <feFlood flood-color="#D5D5D5"/>
      <feComposite in2="offsetblur" operator="in"/>
    </filter>
    <linearGradient id="Gradient_7" gradientUnits="userSpaceOnUse" x1="386.229" y1="268.347" x2="413" y2="268.347">
      <stop offset="0" stop-color="#07B699"/>
      <stop offset="1" stop-color="#03B998"/>
    </linearGradient>
    <clipPath id="Clip_9">
      <path d="M400.284,250.678 C407.52,250.894 413.208,256.937 412.994,264.171 C412.896,267.48 412.692,270.824 412.39,274.114 C411.767,280.915 406.049,286.023 399.353,286.023 C398.951,286.023 398.547,286.006 398.14,285.968 C390.931,285.306 385.623,278.925 386.285,271.717 C386.539,268.961 386.71,266.158 386.791,263.387 C387.005,256.152 393.036,250.46 400.284,250.678 z"/>
    </clipPath>
    <filter id="Shadow_10">
      <feGaussianBlur in="SourceAlpha" stdDeviation="1.5"/>
      <feOffset dx="0" dy="0" result="offsetblur"/>
      <feFlood flood-color="#D5D5D5"/>
      <feComposite in2="offsetblur" operator="in"/>
    </filter>
    <linearGradient id="Gradient_8" gradientUnits="userSpaceOnUse" x1="372.973" y1="317.915" x2="402.786" y2="317.915">
      <stop offset="0" stop-color="#07B699"/>
      <stop offset="1" stop-color="#03B998"/>
    </linearGradient>
    <clipPath id="Clip_11">
      <path d="M390.609,300.633 C393.622,301.156 392.356,300.803 394.454,301.505 C401.195,304.145 404.519,311.75 401.88,318.49 C400.679,321.561 399.364,324.635 397.977,327.631 C395.76,332.416 391.025,335.231 386.076,335.231 C384.231,335.231 382.358,334.841 380.573,334.013 C374.005,330.97 371.147,323.18 374.19,316.612 C375.357,314.096 376.46,311.511 377.469,308.932 C380.124,302.957 384.292,300.8 390.609,300.633 z"/>
    </clipPath>
    <filter id="Shadow_12">
      <feGaussianBlur in="SourceAlpha" stdDeviation="1.5"/>
      <feOffset dx="0" dy="0" result="offsetblur"/>
      <feFlood flood-color="#D5D5D5"/>
      <feComposite in2="offsetblur" operator="in"/>
    </filter>
    <linearGradient id="Gradient_9" gradientUnits="userSpaceOnUse" x1="356.059" y1="171.877" x2="387.603" y2="171.877">
      <stop offset="0" stop-color="#07B699"/>
      <stop offset="1" stop-color="#03B998"/>
    </linearGradient>
    <clipPath id="Clip_13">
      <path d="M369.642,155.065 C373.694,155.284 376.985,157.146 379.575,160.2 C381.583,162.819 383.53,165.538 385.373,168.279 C389.411,174.288 387.814,182.431 381.806,186.468 C379.563,187.976 377.02,188.697 374.506,188.697 C370.289,188.697 366.147,186.666 363.617,182.9 C362.074,180.606 360.439,178.327 358.758,176.128 C354.358,170.379 355.453,162.152 361.202,157.753 C364.101,155.598 366.162,155.271 369.642,155.065 z"/>
    </clipPath>
    <filter id="Shadow_14">
      <feGaussianBlur in="SourceAlpha" stdDeviation="1.5"/>
      <feOffset dx="0" dy="0" result="offsetblur"/>
      <feFlood flood-color="#D5D5D5"/>
      <feComposite in2="offsetblur" operator="in"/>
    </filter>
    <linearGradient id="Gradient_10" gradientUnits="userSpaceOnUse" x1="318.666" y1="136.154" x2="352.391" y2="136.154">
      <stop offset="0" stop-color="#07B699"/>
      <stop offset="1" stop-color="#03B998"/>
    </linearGradient>
    <clipPath id="Clip_15">
      <path d="M332.819,120.48 C335.048,120.621 337.022,121.457 338.919,122.559 C341.687,124.359 344.434,126.265 347.083,128.227 C352.901,132.535 354.125,140.743 349.816,146.562 C347.247,150.034 343.286,151.87 339.275,151.87 C336.563,151.87 333.829,151.032 331.484,149.296 C329.258,147.648 326.953,146.046 324.628,144.535 C318.56,140.588 316.841,132.47 320.786,126.402 C324.029,121.842 327.406,120.573 332.819,120.48 z"/>
    </clipPath>
    <filter id="Shadow_16">
      <feGaussianBlur in="SourceAlpha" stdDeviation="1.5"/>
      <feOffset dx="0" dy="0" result="offsetblur"/>
      <feFlood flood-color="#D5D5D5"/>
      <feComposite in2="offsetblur" operator="in"/>
    </filter>
    <linearGradient id="Gradient_11" gradientUnits="userSpaceOnUse" x1="224.441" y1="240.33" x2="289.91" y2="240.33">
      <stop offset="0" stop-color="#008FFF"/>
      <stop offset="1" stop-color="#03B998"/>
    </linearGradient>
    <linearGradient id="Gradient_12" gradientUnits="userSpaceOnUse" x1="117" y1="236.815" x2="401.999" y2="236.815">
      <stop offset="0" stop-color="#008FFF"/>
      <stop offset="0.461" stop-color="#2BA4FF"/>
      <stop offset="1" stop-color="#03B998"/>
    </linearGradient>
  </defs>
  <g id="stopwatch" display="none">
    <path d="M390.117,152.637 C391.884,154.404 394.198,155.287 396.513,155.287 C398.828,155.287 401.143,154.404 402.908,152.638 C406.442,149.106 406.442,143.379 402.909,139.847 L370.239,107.175 C366.707,103.643 360.98,103.643 357.448,107.174 C353.915,110.706 353.915,116.433 357.447,119.965 L360.993,123.511 L341.88,142.435 C321.57,126.566 297.11,115.933 269.974,112.585 L269.974,85.904 L274.873,85.904 C279.869,85.904 283.919,81.854 283.919,76.859 C283.919,71.864 279.869,67.814 274.873,67.814 L228.517,67.814 C223.521,67.814 219.471,71.864 219.471,76.859 C219.471,81.854 223.521,85.904 228.517,85.904 L233.793,85.904 L233.793,112.55 C161.432,121.426 105.558,183.186 105.558,257.818 C105.558,338.526 171.314,404.186 252.021,404.186 C332.728,404.186 398.437,338.527 398.437,257.819 C398.437,224.01 386.933,192.845 367.609,168.038 L386.564,149.095 L390.117,152.637 z M194.961,336.261 C197.796,331.351 204.075,329.666 208.987,332.503 C213.895,335.338 215.58,341.619 212.743,346.529 C209.907,351.439 203.627,353.122 198.718,350.286 C193.807,347.451 192.127,341.171 194.961,336.261 z M198.717,165.31 C203.629,162.472 209.906,164.156 212.742,169.066 C215.579,173.976 213.896,180.257 208.984,183.092 C204.074,185.927 197.795,184.244 194.959,179.333 C192.123,174.423 193.807,168.143 198.717,165.31 z M165.854,257.8 C165.854,263.467 161.257,268.065 155.586,268.065 C149.917,268.065 145.319,263.467 145.319,257.798 C145.319,252.127 149.914,247.531 155.586,247.531 C161.257,247.531 165.855,252.128 165.854,257.8 z M159.627,204.401 C162.463,199.488 168.739,197.805 173.652,200.643 C178.561,203.477 180.247,209.758 177.408,214.667 C174.574,219.578 168.294,221.26 163.384,218.425 C158.476,215.589 156.793,209.309 159.627,204.401 z M163.387,297.172 C168.297,294.337 174.578,296.017 177.411,300.93 C180.248,305.84 178.565,312.119 173.654,314.954 C168.743,317.788 162.464,316.106 159.628,311.197 C156.793,306.285 158.476,300.008 163.387,297.172 z M252.115,151.002 C257.786,151.002 262.381,155.595 262.381,161.268 C262.381,166.937 257.786,171.535 252.115,171.535 C246.444,171.535 241.847,166.937 241.847,161.268 C241.847,155.597 246.445,151.002 252.115,151.002 z M242.839,239.315 L242.839,200.1 C242.839,195.105 246.889,191.055 251.884,191.055 C256.879,191.055 260.929,195.105 260.929,200.1 L260.929,239.455 C267.713,242.829 272.462,249.765 272.462,257.8 C272.462,269.139 263.361,278.332 252.021,278.332 C240.681,278.332 231.344,269.139 231.344,257.8 C231.344,249.65 236.055,242.632 242.839,239.315 z M252.118,344.058 C257.788,344.058 262.384,348.655 262.384,354.325 C262.384,359.998 257.788,364.594 252.117,364.593 C246.447,364.593 241.85,359.997 241.849,354.325 C241.849,348.656 246.447,344.058 252.118,344.058 z M309.271,179.332 C306.437,184.243 300.157,185.929 295.247,183.091 C290.336,180.256 288.654,173.974 291.488,169.066 C294.326,164.156 300.604,162.471 305.515,165.31 C310.424,168.143 312.106,174.422 309.271,179.332 z M305.517,350.283 C300.605,353.119 294.328,351.438 291.491,346.527 C288.656,341.616 290.336,335.337 295.25,332.5 C300.16,329.667 306.44,331.349 309.273,336.261 C312.108,341.171 310.427,347.451 305.517,350.283 z M330.582,314.952 C325.669,312.117 323.985,305.837 326.823,300.927 C329.658,296.017 335.938,294.334 340.848,297.169 C345.758,300.006 347.442,306.285 344.606,311.195 C341.771,316.104 335.493,317.788 330.582,314.952 z M338.379,257.794 C338.379,252.126 342.975,247.529 348.645,247.529 C354.316,247.53 358.915,252.126 358.912,257.796 C358.912,263.465 354.319,268.062 348.645,268.062 C342.976,268.062 338.376,263.466 338.379,257.794 z M340.846,218.422 C335.935,221.258 329.656,219.577 326.82,214.664 C323.985,209.756 325.668,203.474 330.581,200.641 C335.491,197.805 341.772,199.486 344.605,204.399 C347.44,209.308 345.758,215.587 340.846,218.422 z" fill="url(#Gradient_1)" id="stopwatch"/>
  </g>
  <g id="circle_back" display="none" opacity="0.3">
    <path d="M250,500 C111.929,500 0,388.071 0,250 C0,111.929 111.929,0 250,0 C388.071,0 500,111.929 500,250 C500,388.071 388.071,500 250,500 z" fill="url(#Gradient_2)"/>
  </g>
  <g id="hourglass" display="none">
    <g>
      <g>
        <path d="M298.673,256.123 C302.447,255.033 311.282,252.474 315.39,240.394 L323.852,215.51 L327.255,216.666 C328.813,217.196 330.521,216.355 331.052,214.797 L335.592,201.446 C336.122,199.888 335.281,198.181 333.721,197.651 L224.022,160.351 C222.465,159.821 220.755,160.663 220.226,162.22 L215.686,175.57 C215.157,177.128 215.998,178.835 217.555,179.366 L220.959,180.523 L212.345,205.861 C208.278,217.823 210.969,221.862 216.072,227.975 L238.271,254.557 L235.796,261.834 C227.302,263.677 205.106,268.514 202.118,269.377 C198.345,270.468 189.508,273.024 185.4,285.106 L178.115,306.532 L174.711,305.375 C173.154,304.845 171.444,305.686 170.913,307.244 L166.376,320.594 C165.845,322.152 166.687,323.859 168.245,324.391 L277.945,361.692 C279.501,362.221 281.211,361.38 281.741,359.821 L286.278,346.473 C286.809,344.915 285.968,343.206 284.408,342.676 L281.006,341.518 L288.443,319.639 C292.511,307.679 289.822,303.637 284.717,297.527 L262.52,270.944 L264.992,263.667 C273.487,261.825 295.683,256.989 298.673,256.123 z M252.313,275.526 L276.452,304.43 C278.304,306.647 279.285,307.858 279.551,308.967 C279.871,310.298 279.443,312.655 278.247,316.17 L270.809,338.051 L188.312,310 L195.596,288.574 C197.896,281.812 202.065,280.605 205.109,279.724 C207.489,279.036 227.908,274.559 241.052,271.716 C242.899,271.316 244.404,269.975 245.012,268.185 L249.441,255.16 C250.045,253.381 249.68,251.417 248.477,249.975 L224.411,221.158 L224.338,221.069 C222.485,218.852 221.504,217.641 221.239,216.532 C220.92,215.201 221.345,212.845 222.542,209.329 L231.156,183.991 L313.655,212.042 L305.192,236.927 C302.893,243.691 298.725,244.896 295.681,245.777 C293.302,246.466 272.883,250.944 259.74,253.785 C257.892,254.185 256.386,255.525 255.777,257.317 L251.349,270.341 C250.744,272.12 251.111,274.083 252.313,275.526 z" fill="url(#Gradient_3)"/>
        <g>
          <path d="M162.217,156.215 L339.751,156.215 L339.751,365.85 L162.217,365.85 z M231.156,183.991 L313.655,212.042 L305.192,236.927 C302.893,243.691 298.725,244.896 295.681,245.777 C293.302,246.466 272.883,250.944 259.74,253.785 C257.892,254.185 256.386,255.525 255.777,257.317 L251.349,270.341 C250.744,272.12 251.111,274.083 252.313,275.526 L276.452,304.43 C278.304,306.647 279.285,307.858 279.551,308.967 C279.871,310.298 279.443,312.655 278.247,316.17 L270.809,338.051 L188.312,310 L195.596,288.574 C197.896,281.812 202.065,280.605 205.109,279.724 C207.489,279.036 227.908,274.559 241.052,271.716 C242.899,271.316 244.404,269.975 245.012,268.185 L249.441,255.16 C250.045,253.381 249.68,251.417 248.477,249.975 L224.411,221.158 L224.338,221.069 C222.485,218.852 221.504,217.641 221.239,216.532 C220.92,215.201 221.345,212.845 222.542,209.329 L231.156,183.991 z M223.434,160.215 C221.779,160.334 220.935,160.57 220.225,162.22 L215.686,175.57 C215.157,177.128 215.998,178.835 217.555,179.366 L220.959,180.523 L212.345,205.861 C208.278,217.823 210.969,221.862 216.072,227.975 L238.271,254.557 L235.796,261.834 C227.302,263.677 205.106,268.514 202.118,269.377 C198.345,270.468 189.508,273.024 185.4,285.105 L178.115,306.532 L174.711,305.375 C173.154,304.845 171.444,305.686 170.913,307.244 L166.376,320.594 C165.845,322.152 166.687,323.859 168.245,324.391 L277.945,361.692 C279.501,362.221 281.211,361.38 281.741,359.821 L286.278,346.473 C286.809,344.915 285.968,343.206 284.408,342.676 L281.006,341.518 L288.443,319.639 C292.511,307.679 289.822,303.637 284.717,297.527 L262.52,270.944 L264.992,263.667 C273.487,261.825 295.683,256.989 298.673,256.123 C302.447,255.033 311.282,252.474 315.39,240.394 L323.852,215.51 L327.255,216.666 C328.813,217.196 330.521,216.355 331.052,214.797 L335.592,201.446 C336.122,199.888 335.281,198.181 333.721,197.651 L224.022,160.35 L223.434,160.215 z" fill="rgba(0,0,0,1)" clip-path="url(#Clip_1)" filter="url(#Shadow_2)"/>
          <path d="M162.217,156.965 L339.751,156.965 L339.001,156.215 L339.001,365.85 L339.751,365.1 L162.217,365.1 L162.967,365.85 L162.967,156.215 L162.217,156.965 z M162.217,155.465 C161.802,155.465 161.467,155.801 161.467,156.215 L161.467,365.85 C161.467,366.264 161.802,366.6 162.217,366.6 L339.751,366.6 C340.165,366.6 340.501,366.264 340.501,365.85 L340.501,156.215 C340.501,155.801 340.165,155.465 339.751,155.465 L162.217,155.465 z M230.915,184.701 L313.413,212.752 L312.945,211.8 L304.482,236.685 C303.261,240.279 301.474,242.419 299.072,243.71 C298.057,244.255 297.218,244.552 295.473,245.057 C293.456,245.641 276.926,249.303 259.581,253.052 C257.475,253.508 255.761,255.035 255.067,257.075 L250.639,270.099 C249.95,272.125 250.367,274.361 251.737,276.006 L275.876,304.91 C278.038,307.499 278.626,308.328 278.822,309.142 C279.097,310.29 278.69,312.541 277.537,315.928 L270.099,337.809 L271.05,337.34 L188.554,309.29 L189.022,310.241 L196.306,288.816 C198.092,283.565 200.401,281.867 205.317,280.444 C207.328,279.863 223.656,276.246 241.211,272.449 C243.315,271.994 245.029,270.466 245.722,268.426 L250.151,255.401 C250.839,253.374 250.423,251.137 249.053,249.495 L224.986,220.677 L224.917,220.593 C222.752,218.001 222.163,217.171 221.968,216.357 C221.693,215.207 222.1,212.956 223.252,209.57 L231.866,184.232 L230.915,184.701 z M231.398,183.281 C231.006,183.147 230.58,183.357 230.446,183.749 L221.832,209.087 C220.592,212.732 220.147,215.193 220.51,216.707 C220.784,217.852 221.409,218.734 223.762,221.55 L223.832,221.635 L247.901,250.456 C248.937,251.697 249.251,253.387 248.731,254.919 L244.302,267.944 C243.778,269.485 242.483,270.639 240.894,270.983 C223.235,274.803 206.965,278.407 204.9,279.003 C199.56,280.549 196.857,282.536 194.886,288.333 L187.602,309.759 C187.469,310.151 187.679,310.577 188.071,310.71 L270.567,338.761 C270.959,338.894 271.385,338.684 271.519,338.292 L278.957,316.411 C280.198,312.765 280.644,310.304 280.28,308.791 C280.006,307.647 279.381,306.767 277.028,303.949 L252.889,275.045 C251.853,273.802 251.539,272.113 252.059,270.582 L256.487,257.558 C257.011,256.017 258.307,254.863 259.898,254.518 C277.345,250.747 293.82,247.097 295.89,246.498 C297.732,245.965 298.646,245.642 299.782,245.031 C302.522,243.559 304.56,241.117 305.902,237.168 L314.365,212.283 C314.498,211.891 314.288,211.465 313.896,211.331 L231.398,183.281 z M223.379,159.467 C221.23,159.622 220.306,160.133 219.536,161.924 L214.976,175.329 C214.313,177.278 215.365,179.412 217.313,180.076 L220.717,181.233 L220.249,180.282 L211.635,205.62 C207.971,216.394 209.031,220.711 215.496,228.455 L237.695,255.038 L237.561,254.316 L235.086,261.592 L235.637,261.101 C218.11,264.905 204.32,267.96 201.91,268.656 C198.225,269.722 195.865,270.705 193.108,272.758 C189.415,275.51 186.531,279.449 184.69,284.864 L177.405,306.29 L178.356,305.822 L174.952,304.665 C173.003,304.002 170.867,305.052 170.203,307.002 L165.665,320.353 C165.002,322.302 166.053,324.435 168.003,325.1 L277.704,362.402 C279.652,363.064 281.787,362.013 282.451,360.062 L286.988,346.714 C287.653,344.764 286.602,342.629 284.65,341.965 L281.248,340.808 L281.716,341.759 L289.153,319.88 C292.818,309.106 291.758,304.784 285.292,297.046 L263.095,270.463 L263.23,271.185 L265.702,263.909 L265.151,264.4 C282.55,260.626 296.468,257.543 298.882,256.843 C302.413,255.823 304.677,254.898 307.343,252.99 C311.196,250.232 314.201,246.221 316.1,240.636 L324.562,215.751 L323.61,216.22 L327.014,217.376 C328.964,218.04 331.098,216.989 331.762,215.039 L336.302,201.688 C336.966,199.737 335.915,197.604 333.963,196.941 L224.264,159.64 L223.602,159.484 L223.379,159.467 z M223.488,160.963 L223.434,160.215 L223.265,160.946 L223.854,161.081 L333.48,198.361 C334.647,198.758 335.279,200.039 334.882,201.204 L330.342,214.555 C329.945,215.722 328.663,216.353 327.497,215.956 L324.093,214.8 C323.701,214.666 323.275,214.876 323.141,215.268 L314.68,240.153 C312.882,245.439 310.07,249.193 306.47,251.77 C303.976,253.555 301.846,254.426 298.465,255.402 C296.104,256.086 282.116,259.185 264.833,262.934 C264.576,262.99 264.367,263.177 264.282,263.426 L261.81,270.703 C261.726,270.95 261.776,271.224 261.944,271.425 L284.141,298.008 C290.289,305.366 291.218,309.151 287.733,319.397 L280.296,341.277 C280.163,341.669 280.373,342.095 280.765,342.228 L284.167,343.386 C285.334,343.783 285.966,345.065 285.568,346.231 L281.031,359.579 C280.634,360.746 279.351,361.378 278.187,360.982 L168.487,323.68 C167.32,323.283 166.689,322.001 167.085,320.836 L171.623,307.485 C172.02,306.32 173.304,305.689 174.469,306.085 L177.874,307.242 C178.266,307.375 178.692,307.165 178.825,306.773 L186.11,285.347 C187.853,280.221 190.553,276.532 194.004,273.961 C196.582,272.041 198.801,271.117 202.326,270.097 C204.683,269.416 218.544,266.345 235.955,262.567 C236.212,262.511 236.422,262.325 236.506,262.075 L238.981,254.798 C239.065,254.551 239.014,254.277 238.846,254.076 L216.648,227.494 C210.499,220.129 209.571,216.348 213.055,206.103 L221.669,180.765 C221.802,180.373 221.592,179.947 221.2,179.813 L217.797,178.656 C216.632,178.259 216,176.977 216.396,175.811 L220.936,162.461 C221.433,161.31 221.847,161.082 223.488,160.963 z" fill="rgba(0,0,0,1)" clip-path="url(#Clip_1)" filter="url(#Shadow_2)"/>
        </g>
      </g>
      <g>
        <path d="M317.487,378.231 C315.079,379.596 312.596,380.902 310.111,382.114 C309.709,382.31 309.321,382.525 308.946,382.757 C308.548,382.895 308.151,383.056 307.757,383.239 C296.973,388.268 285.727,391.808 274.142,393.862 C273.994,393.883 273.846,393.891 273.696,393.918 C270.965,394.401 268.185,394.803 265.436,395.118 C265.406,395.123 265.376,395.13 265.346,395.134 C260.298,395.691 255.193,395.975 250.034,395.975 C190.556,395.975 139.831,357.811 121.037,304.688 C120.754,303.878 120.469,303.069 120.2,302.257 C115.695,288.71 113.248,274.231 113.248,259.191 C113.248,244.118 115.706,229.608 120.23,216.036 C120.329,215.74 120.424,215.445 120.524,215.148 C120.794,214.358 121.073,213.571 121.359,212.786 C121.491,212.417 121.625,212.05 121.761,211.684 C137.379,169.649 173.102,137.311 217.184,126.403 C217.211,126.397 217.24,126.395 217.267,126.388 C217.919,126.227 218.576,126.069 219.233,125.917 C219.307,125.901 219.378,125.874 219.449,125.856 C229.066,123.652 239.065,122.467 249.327,122.415 L249.445,136.478 C249.481,140.844 252.238,142.105 255.567,139.283 L285.274,114.102 C288.603,111.28 288.567,106.705 285.187,103.939 L255.063,79.26 C251.685,76.495 248.952,77.802 248.989,82.167 L249.107,96.203 C205.914,96.442 165.344,113.366 134.775,143.934 C131.763,146.945 128.889,150.056 126.147,153.254 C126.13,153.272 126.113,153.287 126.096,153.307 C125.995,153.425 125.899,153.547 125.799,153.665 C101.738,181.899 88.173,217.089 87.109,254.421 C87.082,254.711 87.051,254.999 87.044,255.295 C87.015,256.541 87,257.807 87,259.059 C87,261.111 87.042,263.191 87.119,265.243 C87.128,265.484 87.159,265.718 87.182,265.955 C88.561,299.968 100.322,332.127 120.957,358.763 C121.027,358.855 121.083,358.953 121.154,359.044 C123.17,361.646 125.301,364.223 127.481,366.703 C127.621,366.862 127.775,367 127.92,367.152 C130.126,369.64 132.404,372.077 134.775,374.447 C158.977,398.65 189.449,414.298 222.527,419.887 C222.628,419.906 222.729,419.926 222.83,419.944 C222.905,419.955 222.98,419.96 223.053,419.972 C231.887,421.434 240.903,422.191 250.034,422.191 C274.064,422.191 297.211,417.078 318.834,406.999 C319.3,406.782 319.742,406.533 320.169,406.27 C320.653,406.103 321.129,405.905 321.598,405.676 C324.565,404.228 327.528,402.672 330.401,401.045 C336.701,397.478 338.918,389.481 335.351,383.181 C331.783,376.881 323.785,374.667 317.487,378.231 z" fill="url(#Gradient_4)"/>
        <g>
          <path d="M83,73.829 L341.055,73.829 L341.055,426.191 L83,426.191 z M252.15,77.829 C251.826,77.848 251.493,77.805 251.178,77.884 C249.33,78.346 249.006,80.586 248.989,82.167 L249.107,96.203 C205.914,96.442 165.344,113.366 134.775,143.934 C131.763,146.945 128.889,150.056 126.147,153.254 C126.13,153.272 126.113,153.287 126.096,153.307 C125.995,153.425 125.899,153.547 125.799,153.665 C101.738,181.899 88.173,217.089 87.108,254.421 C87.082,254.711 87.051,254.999 87.044,255.295 C87.015,256.541 87,257.807 87,259.059 C87,261.111 87.042,263.191 87.119,265.243 C87.128,265.484 87.159,265.718 87.182,265.954 C88.561,299.968 100.322,332.127 120.957,358.763 C121.027,358.855 121.083,358.953 121.154,359.044 C123.17,361.646 125.301,364.223 127.481,366.703 C127.621,366.862 127.775,367 127.92,367.152 C130.126,369.64 132.404,372.077 134.775,374.447 C158.977,398.65 189.449,414.298 222.527,419.887 C222.628,419.906 222.729,419.926 222.83,419.944 C222.905,419.955 222.98,419.96 223.053,419.972 C231.887,421.434 240.903,422.191 250.034,422.191 C274.064,422.191 297.211,417.078 318.834,406.999 C319.3,406.782 319.742,406.533 320.168,406.27 C320.653,406.103 321.129,405.905 321.598,405.676 C324.565,404.228 327.528,402.672 330.401,401.045 C336.701,397.478 338.918,389.481 335.351,383.181 C331.783,376.881 323.785,374.667 317.487,378.231 C315.079,379.596 312.596,380.902 310.111,382.114 C309.709,382.31 309.321,382.525 308.946,382.757 C308.548,382.895 308.151,383.056 307.757,383.239 C296.973,388.268 285.727,391.808 274.142,393.862 C273.994,393.883 273.846,393.891 273.696,393.918 C270.965,394.401 268.185,394.803 265.436,395.118 C265.406,395.123 265.376,395.13 265.346,395.134 C260.298,395.691 255.193,395.975 250.034,395.975 C190.556,395.975 139.831,357.811 121.037,304.688 C120.754,303.878 120.469,303.069 120.2,302.257 C115.695,288.71 113.248,274.231 113.248,259.19 C113.248,244.118 115.706,229.608 120.23,216.036 C120.329,215.74 120.424,215.445 120.524,215.148 C120.794,214.358 121.073,213.571 121.358,212.786 C121.491,212.417 121.625,212.05 121.761,211.684 C137.379,169.649 173.102,137.311 217.184,126.403 C217.211,126.397 217.24,126.395 217.267,126.388 C217.919,126.227 218.576,126.069 219.233,125.917 C219.307,125.901 219.378,125.874 219.449,125.856 C229.066,123.652 239.065,122.467 249.327,122.414 L249.445,136.478 C249.481,140.844 252.238,142.105 255.567,139.283 L285.274,114.102 C288.603,111.28 288.567,106.705 285.187,103.939 L255.063,79.26 C254.182,78.596 253.276,77.981 252.15,77.829 z" fill="rgba(0,0,0,1)" clip-path="url(#Clip_3)" filter="url(#Shadow_4)"/>
          <path d="M83,74.579 L341.055,74.579 L340.305,73.829 L340.305,426.191 L341.055,425.441 L83,425.441 L83.75,426.191 L83.75,73.829 L83,74.579 z M83,73.079 C82.586,73.079 82.25,73.415 82.25,73.829 L82.25,426.191 C82.25,426.605 82.586,426.941 83,426.941 L341.055,426.941 C341.469,426.941 341.805,426.605 341.805,426.191 L341.805,73.829 C341.805,73.415 341.469,73.079 341.055,73.079 L83,73.079 z M252.108,77.081 C252.039,77.085 251.977,77.085 251.829,77.084 C251.438,77.082 251.253,77.092 250.996,77.156 C248.996,77.656 248.268,79.547 248.239,82.159 L248.357,96.209 L249.103,95.453 C205.701,95.693 164.945,112.704 134.244,143.403 C131.249,146.399 128.36,149.521 125.577,152.765 C125.595,152.746 125.595,152.746 125.592,152.749 C125.574,152.767 125.574,152.767 125.529,152.816 C125.48,152.873 125.439,152.923 125.369,153.009 C125.358,153.022 125.358,153.022 125.347,153.035 C125.285,153.111 125.26,153.141 125.228,153.179 C101.021,181.584 87.427,216.951 86.359,254.399 C86.355,254.426 86.355,254.426 86.348,254.5 C86.346,254.516 86.346,254.516 86.345,254.532 C86.313,254.875 86.299,255.057 86.294,255.277 C86.265,256.533 86.25,257.805 86.25,259.059 C86.25,261.086 86.291,263.174 86.37,265.271 C86.376,265.442 86.387,265.573 86.417,265.852 C86.42,265.877 86.42,265.877 86.423,265.901 C86.43,265.966 86.43,265.966 86.436,266.028 C87.815,300.088 99.593,332.41 120.364,359.223 C120.378,359.24 120.393,359.262 120.43,359.317 C120.431,359.319 120.431,359.319 120.431,359.32 C120.488,359.404 120.517,359.447 120.561,359.503 C122.575,362.102 124.714,364.691 126.917,367.198 C127.003,367.294 127.072,367.366 127.212,367.504 C127.217,367.509 127.217,367.509 127.222,367.514 C127.301,367.591 127.337,367.628 127.377,367.67 C129.652,370.236 131.936,372.669 134.245,374.978 C158.456,399.189 189.031,414.988 222.402,420.627 C222.46,420.638 222.46,420.638 222.531,420.651 C222.533,420.651 222.533,420.651 222.535,420.652 C222.614,420.667 222.614,420.667 222.695,420.682 C222.762,420.692 222.8,420.697 222.861,420.703 C222.911,420.709 222.923,420.71 222.939,420.713 C231.874,422.192 240.931,422.941 250.034,422.941 C274.171,422.941 297.426,417.805 319.151,407.679 C319.613,407.463 320.073,407.21 320.563,406.908 L320.168,406.27 L320.412,406.979 C320.925,406.803 321.429,406.593 321.927,406.35 C324.934,404.882 327.909,403.318 330.771,401.698 C337.431,397.926 339.775,389.471 336.004,382.811 C332.232,376.152 323.777,373.809 317.117,377.578 C314.729,378.932 312.26,380.232 309.783,381.439 C309.362,381.645 308.952,381.872 308.552,382.119 L308.946,382.757 L308.7,382.048 C308.278,382.195 307.859,382.365 307.441,382.559 C296.748,387.545 285.567,391.075 274.011,393.123 C273.996,393.125 273.961,393.129 273.879,393.138 C273.729,393.154 273.66,393.163 273.564,393.18 C270.869,393.657 268.106,394.058 265.351,394.373 C265.281,394.384 265.281,394.384 265.262,394.388 C265.255,394.389 265.255,394.389 265.25,394.39 C265.245,394.391 265.245,394.391 265.259,394.389 C260.216,394.945 255.138,395.225 250.034,395.225 C192.007,395.225 140.82,358.356 121.744,304.438 C121.695,304.296 121.695,304.296 121.644,304.152 C121.541,303.856 121.493,303.72 121.438,303.561 C121.221,302.94 121.063,302.476 120.912,302.021 C116.352,288.307 113.998,273.899 113.998,259.19 C113.998,244.451 116.362,230.012 120.942,216.273 C120.976,216.169 121.003,216.087 121.064,215.903 C121.065,215.899 121.065,215.899 121.067,215.894 C121.151,215.639 121.187,215.527 121.235,215.387 C121.488,214.646 121.762,213.873 122.063,213.041 C122.198,212.668 122.331,212.305 122.464,211.946 C138.079,169.917 173.754,137.922 217.364,127.131 C217.326,127.139 217.326,127.139 217.337,127.138 C217.337,127.137 217.337,127.137 217.337,127.137 C217.369,127.133 217.369,127.133 217.438,127.119 C218.102,126.954 218.755,126.798 219.402,126.648 C219.454,126.637 219.497,126.625 219.571,126.602 C219.616,126.588 219.622,126.586 219.632,126.584 C229.289,124.37 239.236,123.216 249.33,123.164 L248.577,122.421 L248.695,136.484 C248.736,141.486 252.237,143.089 256.052,139.855 L285.759,114.674 C289.447,111.548 289.404,106.42 285.662,103.358 L255.538,78.68 C254.239,77.7 253.375,77.237 252.25,77.086 L252.108,77.081 z M252.192,78.578 L252.15,77.829 L252.05,78.573 C252.853,78.681 253.527,79.042 254.612,79.859 L284.712,104.519 C287.729,106.987 287.762,111.01 284.789,113.53 L255.082,138.711 C252.237,141.122 250.226,140.201 250.195,136.472 L250.076,122.408 C250.073,121.995 249.736,121.662 249.323,121.665 C239.118,121.717 229.062,122.884 219.281,125.125 C219.222,125.14 219.184,125.151 219.13,125.168 C219.093,125.179 219.079,125.183 219.072,125.185 C218.409,125.338 217.749,125.496 217.087,125.66 C217.124,125.653 217.124,125.653 217.112,125.654 C217.112,125.655 217.112,125.655 217.111,125.655 C217.082,125.659 217.082,125.659 217.017,125.672 C172.911,136.585 136.845,168.931 121.058,211.423 C120.923,211.787 120.788,212.156 120.653,212.532 C120.349,213.369 120.072,214.151 119.814,214.905 C119.764,215.054 119.727,215.167 119.642,215.426 C119.64,215.43 119.64,215.43 119.639,215.435 C119.579,215.618 119.552,215.697 119.518,215.799 C114.888,229.69 112.498,244.289 112.498,259.19 C112.498,274.061 114.878,288.628 119.489,302.494 C119.642,302.956 119.803,303.426 120.021,304.055 C120.077,304.214 120.125,304.351 120.228,304.647 C120.279,304.791 120.279,304.791 120.329,304.936 C139.616,359.451 191.366,396.725 250.034,396.725 C255.193,396.725 260.326,396.442 265.428,395.879 C265.488,395.871 265.488,395.871 265.524,395.865 C265.535,395.863 265.535,395.863 265.544,395.861 C265.558,395.858 265.558,395.858 265.56,395.858 C268.307,395.544 271.1,395.139 273.827,394.657 C273.879,394.647 273.925,394.642 274.04,394.629 C274.139,394.618 274.187,394.613 274.249,394.604 C285.958,392.529 297.263,388.96 308.074,383.919 C308.445,383.747 308.818,383.595 309.192,383.465 L309.34,383.395 C309.699,383.173 310.065,382.971 310.441,382.787 C312.945,381.567 315.441,380.253 317.857,378.884 C323.795,375.523 331.335,377.612 334.699,383.551 C338.061,389.489 335.971,397.029 330.032,400.393 C327.197,401.997 324.249,403.548 321.269,405.002 C320.826,405.219 320.378,405.404 319.925,405.56 L319.774,405.632 C319.331,405.905 318.922,406.13 318.517,406.319 C296.991,416.353 273.952,421.441 250.034,421.441 C241.013,421.441 232.038,420.699 223.176,419.232 C223.122,419.223 223.086,419.219 223.025,419.212 C222.973,419.207 222.96,419.205 222.942,419.202 C222.891,419.193 222.891,419.193 222.814,419.178 C222.812,419.178 222.812,419.178 222.81,419.177 C222.737,419.163 222.737,419.163 222.662,419.149 C189.588,413.56 159.296,397.908 135.306,373.917 C133.018,371.63 130.755,369.218 128.481,366.654 C128.409,366.578 128.365,366.534 128.276,366.447 C128.271,366.442 128.271,366.442 128.266,366.437 C128.15,366.322 128.098,366.269 128.044,366.207 C125.861,363.724 123.741,361.158 121.747,358.585 C121.732,358.565 121.716,358.542 121.678,358.486 C121.678,358.485 121.678,358.485 121.677,358.484 C121.622,358.401 121.594,358.361 121.552,358.307 C100.97,331.738 89.301,299.716 87.932,265.924 C87.921,265.81 87.921,265.81 87.914,265.741 C87.911,265.716 87.911,265.716 87.909,265.692 C87.883,265.447 87.873,265.342 87.869,265.216 C87.79,263.136 87.75,261.067 87.75,259.059 C87.75,257.817 87.765,256.557 87.794,255.313 C87.798,255.138 87.81,254.982 87.838,254.672 C87.84,254.656 87.84,254.656 87.841,254.64 C87.848,254.565 87.848,254.565 87.855,254.488 C88.916,217.336 102.385,182.297 126.37,154.152 C126.411,154.103 126.443,154.065 126.509,153.984 C126.519,153.971 126.519,153.971 126.53,153.958 C126.593,153.881 126.628,153.839 126.665,153.796 C126.648,153.814 126.648,153.814 126.659,153.804 C126.677,153.785 126.677,153.785 126.71,153.748 C129.474,150.526 132.336,147.432 135.305,144.464 C165.726,114.044 206.104,97.191 249.111,96.953 C249.527,96.951 249.861,96.612 249.857,96.197 L249.739,82.161 C249.761,80.183 250.261,78.886 251.36,78.612 C251.453,78.588 251.555,78.583 251.819,78.584 C251.998,78.585 252.081,78.585 252.192,78.578 z" fill="rgba(0,0,0,1)" clip-path="url(#Clip_3)" filter="url(#Shadow_4)"/>
        </g>
      </g>
      <g>
        <path d="M380.263,217.323 C381.105,219.955 381.879,222.654 382.566,225.345 C384.077,231.275 389.408,235.219 395.258,235.219 C396.328,235.219 397.419,235.086 398.504,234.81 C405.519,233.022 409.757,225.885 407.969,218.872 C407.154,215.671 406.232,212.46 405.227,209.328 C403.022,202.434 395.643,198.633 388.749,200.842 C381.854,203.05 378.055,210.429 380.263,217.323 z" fill="url(#Gradient_5)"/>
        <g>
          <path d="M375.635,196.214 L412.378,196.214 L412.378,239.219 L375.635,239.219 z M392.641,200.214 C389.602,200.546 390.887,200.274 388.749,200.842 C381.854,203.05 378.055,210.429 380.263,217.323 C381.105,219.955 381.879,222.654 382.565,225.345 C384.077,231.275 389.408,235.219 395.258,235.219 C396.328,235.219 397.419,235.086 398.504,234.81 C405.519,233.022 409.757,225.885 407.969,218.872 C407.154,215.671 406.232,212.46 405.227,209.328 C403.155,203.824 398.568,200.387 392.641,200.214 z" fill="rgba(0,0,0,1)" clip-path="url(#Clip_5)" filter="url(#Shadow_6)"/>
          <path d="M375.635,196.964 L412.378,196.964 L411.628,196.214 L411.628,239.219 L412.378,238.469 L375.635,238.469 L376.385,239.219 L376.385,196.214 L375.635,196.964 z M375.635,195.464 C375.22,195.464 374.885,195.8 374.885,196.214 L374.885,239.219 C374.885,239.633 375.22,239.969 375.635,239.969 L412.378,239.969 C412.793,239.969 413.128,239.633 413.128,239.219 L413.128,196.214 C413.128,195.8 412.793,195.464 412.378,195.464 L375.635,195.464 z M392.559,199.469 C391.624,199.571 390.357,199.683 390.256,199.696 C390.064,199.723 389.905,199.757 389.642,199.825 C389.545,199.851 388.857,200.037 388.557,200.117 C381.231,202.463 377.214,210.264 379.548,217.552 C380.383,220.159 381.153,222.843 381.839,225.531 C383.413,231.705 388.974,235.969 395.258,235.969 C396.405,235.969 397.558,235.825 398.69,235.536 C406.106,233.647 410.586,226.102 408.696,218.686 C407.875,215.465 406.949,212.24 405.941,209.099 C403.728,203.219 398.837,199.644 392.663,199.464 L392.559,199.469 z M392.722,200.96 L392.619,200.964 C398.178,201.125 402.537,204.311 404.525,209.592 C405.511,212.669 406.429,215.865 407.242,219.057 C408.928,225.669 404.933,232.398 398.319,234.083 C397.309,234.34 396.281,234.469 395.258,234.469 C389.656,234.469 384.696,230.666 383.292,225.16 C382.599,222.443 381.821,219.731 380.977,217.095 C378.895,210.595 382.478,203.638 388.978,201.556 C389.248,201.485 389.933,201.3 390.022,201.276 C390.231,201.222 390.335,201.199 390.458,201.183 C390.517,201.175 391.755,201.065 392.722,200.96 z" fill="rgba(0,0,0,1)" clip-path="url(#Clip_5)" filter="url(#Shadow_6)"/>
        </g>
      </g>
      <g>
        <path d="M371.913,347.421 C366.435,342.687 358.16,343.288 353.426,348.763 C351.613,350.859 349.715,352.926 347.781,354.903 C342.722,360.081 342.818,368.379 347.997,373.44 C350.547,375.931 353.853,377.172 357.156,377.172 C360.562,377.172 363.966,375.852 366.532,373.225 C368.835,370.868 371.099,368.408 373.255,365.91 C377.988,360.433 377.388,352.155 371.913,347.421 z" fill="url(#Gradient_6)"/>
        <g>
          <path d="M340.049,340.232 L380.447,340.232 L380.447,381.172 L340.049,381.172 z M363.648,344.232 C359.206,344.555 356.544,345.37 353.426,348.763 C351.613,350.859 349.715,352.926 347.781,354.903 C342.722,360.081 342.818,368.379 347.997,373.44 C350.547,375.931 353.853,377.172 357.155,377.172 C360.562,377.172 363.966,375.852 366.532,373.225 C368.835,370.868 371.099,368.408 373.255,365.91 C377.988,360.433 377.388,352.155 371.913,347.421 C369.476,345.521 366.787,344.312 363.648,344.232 z" fill="rgba(0,0,0,1)" clip-path="url(#Clip_7)" filter="url(#Shadow_8)"/>
          <path d="M340.049,340.982 L380.447,340.982 L379.697,340.232 L379.697,381.172 L380.447,380.422 L340.049,380.422 L340.799,381.172 L340.799,340.232 L340.049,340.982 z M340.049,339.482 C339.635,339.482 339.299,339.818 339.299,340.232 L339.299,381.172 C339.299,381.587 339.635,381.922 340.049,381.922 L380.447,381.922 C380.861,381.922 381.197,381.587 381.197,381.172 L381.197,340.232 C381.197,339.818 380.861,339.482 380.447,339.482 L340.049,339.482 z M363.594,343.484 C358.551,343.85 355.917,344.943 352.873,348.255 C351.048,350.366 349.16,352.42 347.245,354.378 C341.896,359.853 341.998,368.626 347.473,373.976 C350.097,376.54 353.561,377.922 357.156,377.922 C360.862,377.922 364.427,376.453 367.069,373.749 C369.398,371.365 371.671,368.893 373.823,366.401 C378.827,360.61 378.192,351.859 372.404,346.854 C369.647,344.703 366.806,343.562 363.667,343.483 z M363.629,344.982 C366.424,345.053 368.964,346.073 371.452,348.012 C376.584,352.451 377.15,360.255 372.688,365.42 C370.556,367.889 368.303,370.338 365.996,372.701 C363.639,375.113 360.462,376.422 357.156,376.422 C353.949,376.422 350.862,375.19 348.521,372.903 C343.639,368.132 343.548,360.309 348.318,355.427 C350.254,353.447 352.163,351.37 353.993,349.253 C356.74,346.265 359.015,345.321 363.702,344.98 z" fill="rgba(0,0,0,1)" clip-path="url(#Clip_7)" filter="url(#Shadow_8)"/>
        </g>
      </g>
      <g>
        <path d="M400.284,250.678 C393.036,250.46 387.005,256.152 386.791,263.387 C386.71,266.158 386.539,268.961 386.285,271.717 C385.623,278.925 390.931,285.306 398.14,285.968 C398.547,286.006 398.951,286.023 399.353,286.023 C406.049,286.023 411.767,280.915 412.39,274.114 C412.692,270.824 412.896,267.48 412.994,264.171 C413.208,256.937 407.52,250.894 400.284,250.678 z" fill="url(#Gradient_7)"/>
        <g>
          <path d="M382.229,246.671 L417,246.671 L417,290.023 L382.229,290.023 z M400.284,250.678 C393.036,250.46 387.005,256.152 386.791,263.387 C386.71,266.158 386.539,268.961 386.285,271.717 C385.623,278.925 390.931,285.306 398.14,285.968 C398.547,286.006 398.951,286.023 399.353,286.023 C406.049,286.023 411.767,280.915 412.39,274.114 C412.692,270.824 412.896,267.48 412.994,264.171 C413.208,256.937 407.52,250.894 400.284,250.678 z" fill="rgba(0,0,0,1)" clip-path="url(#Clip_9)" filter="url(#Shadow_10)"/>
          <path d="M382.229,247.421 L417,247.421 L416.25,246.671 L416.25,290.023 L417,289.273 L382.229,289.273 L382.979,290.023 L382.979,246.671 L382.229,247.421 z M382.229,245.921 C381.815,245.921 381.479,246.257 381.479,246.671 L381.479,290.023 C381.479,290.438 381.815,290.773 382.229,290.773 L417,290.773 C417.414,290.773 417.75,290.438 417.75,290.023 L417.75,246.671 C417.75,246.257 417.414,245.921 417,245.921 L382.229,245.921 z M400.306,249.928 C392.648,249.698 386.268,255.712 386.042,263.365 C385.961,266.114 385.791,268.901 385.538,271.648 C384.838,279.269 390.45,286.015 398.071,286.715 C398.496,286.754 398.923,286.773 399.353,286.773 C406.48,286.773 412.483,281.326 413.137,274.182 C413.441,270.864 413.646,267.505 413.744,264.193 C413.97,256.544 407.955,250.157 400.306,249.928 z M400.261,251.427 C407.082,251.631 412.446,257.327 412.244,264.149 C412.147,267.429 411.945,270.758 411.643,274.045 C411.06,280.415 405.706,285.273 399.353,285.273 C398.968,285.273 398.587,285.256 398.209,285.221 C391.412,284.597 386.408,278.581 387.032,271.786 C387.288,269.008 387.459,266.19 387.541,263.409 C387.743,256.584 393.432,251.222 400.261,251.427 z" fill="rgba(0,0,0,1)" clip-path="url(#Clip_9)" filter="url(#Shadow_10)"/>
        </g>
      </g>
      <g>
        <path d="M394.455,301.505 C387.71,298.865 380.108,302.191 377.469,308.933 C376.46,311.511 375.357,314.096 374.19,316.612 C371.147,323.18 374.005,330.97 380.573,334.014 C382.358,334.841 384.231,335.231 386.076,335.231 C391.025,335.231 395.76,332.416 397.977,327.631 C399.364,324.635 400.679,321.561 401.88,318.49 C404.519,311.75 401.195,304.145 394.455,301.505 z" fill="url(#Gradient_8)"/>
        <g>
          <path d="M368.973,296.633 L406.786,296.633 L406.786,339.231 L368.973,339.231 z M390.609,300.633 C384.292,300.8 380.124,302.957 377.469,308.932 C376.46,311.511 375.357,314.096 374.19,316.612 C371.147,323.18 374.005,330.97 380.573,334.013 C382.358,334.841 384.231,335.231 386.076,335.231 C391.025,335.231 395.76,332.416 397.977,327.631 C399.364,324.635 400.679,321.561 401.88,318.49 C404.519,311.75 401.195,304.145 394.454,301.505 C392.356,300.803 393.622,301.156 390.609,300.633 z" fill="rgba(0,0,0,1)" clip-path="url(#Clip_11)" filter="url(#Shadow_12)"/>
          <path d="M368.973,297.383 L406.786,297.383 L406.036,296.633 L406.036,339.231 L406.786,338.481 L368.973,338.481 L369.723,339.231 L369.723,296.633 L368.973,297.383 z M368.973,295.883 C368.559,295.883 368.223,296.218 368.223,296.633 L368.223,339.231 C368.223,339.646 368.559,339.981 368.973,339.981 L406.786,339.981 C407.2,339.981 407.536,339.646 407.536,339.231 L407.536,296.633 C407.536,296.218 407.2,295.883 406.786,295.883 L368.973,295.883 z M390.589,299.883 C383.683,300.066 379.452,302.622 376.784,308.628 C375.763,311.232 374.666,313.803 373.51,316.297 C370.293,323.24 373.314,331.477 380.258,334.694 C382.107,335.55 384.082,335.981 386.076,335.981 C391.433,335.981 396.365,332.894 398.657,327.946 C400.062,324.914 401.381,321.825 402.578,318.763 C405.369,311.638 401.854,303.598 394.728,300.807 C394.398,300.696 393.722,300.466 393.627,300.434 C393.369,300.349 393.213,300.305 393.023,300.267 C392.923,300.247 391.665,300.055 390.737,299.894 L390.589,299.883 z M390.629,301.382 L390.48,301.371 C391.44,301.538 392.668,301.726 392.727,301.737 C392.849,301.762 392.951,301.791 393.157,301.859 C393.244,301.887 393.916,302.116 394.217,302.217 C400.536,304.693 403.67,311.862 401.181,318.216 C399.995,321.25 398.688,324.311 397.296,327.316 C395.252,331.728 390.854,334.481 386.076,334.481 C384.299,334.481 382.538,334.097 380.888,333.333 C374.696,330.464 372.002,323.119 374.871,316.927 C376.04,314.406 377.149,311.807 378.167,309.206 C380.576,303.786 384.276,301.55 390.629,301.382 z" fill="rgba(0,0,0,1)" clip-path="url(#Clip_11)" filter="url(#Shadow_12)"/>
        </g>
      </g>
      <g>
        <path d="M363.617,182.9 C366.147,186.666 370.289,188.697 374.506,188.697 C377.02,188.697 379.563,187.976 381.806,186.468 C387.814,182.431 389.411,174.288 385.373,168.279 C383.53,165.538 381.583,162.819 379.575,160.2 C375.177,154.45 366.952,153.356 361.202,157.753 C355.453,162.152 354.358,170.379 358.758,176.128 C360.439,178.327 362.074,180.606 363.617,182.9 z" fill="url(#Gradient_9)"/>
        <g>
          <path d="M352.059,151.065 L391.603,151.065 L391.603,192.697 L352.059,192.697 z M369.642,155.065 C366.162,155.271 364.101,155.598 361.202,157.753 C355.453,162.152 354.358,170.379 358.758,176.128 C360.439,178.327 362.074,180.606 363.617,182.9 C366.147,186.666 370.289,188.697 374.506,188.697 C377.02,188.697 379.563,187.976 381.806,186.468 C387.814,182.431 389.411,174.288 385.373,168.279 C383.53,165.538 381.583,162.819 379.575,160.2 C376.985,157.146 373.694,155.284 369.642,155.065 z" fill="rgba(0,0,0,1)" clip-path="url(#Clip_13)" filter="url(#Shadow_14)"/>
          <path d="M352.059,151.815 L391.603,151.815 L390.853,151.065 L390.853,192.697 L391.603,191.947 L352.059,191.947 L352.809,192.697 L352.809,151.065 L352.059,151.815 z M352.059,150.315 C351.644,150.315 351.309,150.651 351.309,151.065 L351.309,192.697 C351.309,193.112 351.644,193.447 352.059,193.447 L391.603,193.447 C392.017,193.447 392.353,193.112 392.353,192.697 L392.353,151.065 C392.353,150.651 392.017,150.315 391.603,150.315 L352.059,150.315 z M369.598,154.316 C365.404,154.564 363.498,155.112 360.754,157.151 C354.668,161.808 353.51,170.506 358.162,176.583 C359.833,178.769 361.459,181.036 362.994,183.319 C365.6,187.197 369.921,189.447 374.506,189.447 C377.236,189.447 379.912,188.645 382.224,187.091 C388.576,182.822 390.265,174.213 385.996,167.861 C384.123,165.076 382.166,162.348 380.17,159.744 C377.335,156.399 373.821,154.539 369.683,154.316 z M369.602,155.814 C373.313,156.014 376.449,157.673 379.003,160.685 C380.956,163.235 382.896,165.939 384.751,168.698 C388.558,174.362 387.052,182.039 381.388,185.846 C379.325,187.233 376.941,187.947 374.506,187.947 C370.415,187.947 366.564,185.941 364.239,182.482 C362.687,180.173 361.043,177.882 359.353,175.672 C355.205,170.253 356.237,162.496 361.657,158.349 C364.124,156.515 365.759,156.046 369.687,155.814 z" fill="rgba(0,0,0,1)" clip-path="url(#Clip_13)" filter="url(#Shadow_14)"/>
        </g>
      </g>
      <g>
        <path d="M349.816,146.562 C354.125,140.743 352.901,132.535 347.083,128.227 C344.434,126.265 341.687,124.359 338.919,122.559 C332.85,118.614 324.732,120.333 320.786,126.402 C316.841,132.47 318.56,140.588 324.628,144.535 C326.953,146.046 329.258,147.648 331.484,149.296 C333.829,151.032 336.563,151.87 339.275,151.87 C343.286,151.87 347.247,150.034 349.816,146.562 z" fill="url(#Gradient_10)"/>
        <g>
          <path d="M314.666,116.48 L356.391,116.48 L356.391,155.87 L314.666,155.87 z M332.819,120.48 C327.406,120.573 324.029,121.842 320.786,126.402 C316.841,132.47 318.56,140.588 324.628,144.535 C326.953,146.046 329.258,147.648 331.484,149.296 C333.829,151.032 336.563,151.87 339.275,151.87 C343.286,151.87 347.247,150.034 349.816,146.562 C354.125,140.743 352.901,132.535 347.083,128.227 C344.434,126.265 341.687,124.359 338.919,122.559 C337.022,121.457 335.048,120.621 332.819,120.48 z" fill="rgba(0,0,0,1)" clip-path="url(#Clip_15)" filter="url(#Shadow_16)"/>
          <path d="M314.666,117.23 L356.391,117.23 L355.641,116.48 L355.641,155.87 L356.391,155.12 L314.666,155.12 L315.416,155.87 L315.416,116.48 L314.666,117.23 z M314.666,115.73 C314.252,115.73 313.916,116.065 313.916,116.48 L313.916,155.87 C313.916,156.284 314.252,156.62 314.666,156.62 L356.391,156.62 C356.806,156.62 357.141,156.284 357.141,155.87 L357.141,116.48 C357.141,116.065 356.806,115.73 356.391,115.73 L314.666,115.73 z M332.806,119.73 C326.825,119.833 323.401,121.431 320.175,125.967 C315.987,132.409 317.804,140.991 324.219,145.164 C326.518,146.657 328.811,148.25 331.038,149.899 C333.455,151.688 336.33,152.62 339.275,152.62 C343.638,152.62 347.773,150.583 350.419,147.008 C354.974,140.857 353.681,132.179 347.529,127.625 C344.881,125.663 342.122,123.748 339.328,121.93 C337.024,120.591 335.019,119.867 332.866,119.731 z M332.772,121.228 C334.661,121.348 336.455,121.996 338.543,123.208 C341.279,124.989 344.012,126.886 346.636,128.83 C352.122,132.892 353.276,140.63 349.213,146.116 C346.854,149.304 343.168,151.12 339.275,151.12 C336.649,151.12 334.087,150.29 331.931,148.693 C329.679,147.026 327.361,145.416 325.036,143.906 C319.317,140.186 317.696,132.532 321.415,126.811 C324.33,122.712 327.303,121.325 332.832,121.23 z" fill="rgba(0,0,0,1)" clip-path="url(#Clip_15)" filter="url(#Shadow_16)"/>
        </g>
      </g>
    </g>
  </g>
  <g id="Layer_4">
    <g id="icon">
      <path d="M289.91,207.602 C289.91,207.602 240.883,222.619 231.484,232.027 C222.093,241.392 222.093,256.612 231.484,266.02 C240.883,275.403 256.103,275.403 265.485,266.02 C274.868,256.612 289.91,207.602 289.91,207.602 z" fill="url(#Gradient_11)"/>
      <path d="M355.214,155.496 L380.409,180.699 L402,159.083 C402,159.083 387.676,123.339 337.211,94.311 L315.612,115.91 L340.815,141.097 L340.815,141.097 L340.815,141.113 L335.358,146.579 C312.211,126.731 282.203,114.684 249.318,114.684 C176.23,114.684 117,173.905 117,247.01 C117,320.081 176.23,379.319 249.318,379.319 C322.406,379.319 381.636,320.081 381.636,247.01 C381.636,214.108 369.571,184.1 349.749,160.97 L355.214,155.496 z M349.132,249.235 C349.115,249.337 349.106,249.447 349.106,249.582 L351.001,249.582 C349.952,273.093 340.824,295.123 324.961,312.492 L323.768,311.299 C323.522,311.578 323.303,311.875 323.057,312.145 L305.003,294.1 L299.343,299.768 L318.514,318.939 C301.111,334.802 279.123,343.939 255.578,344.996 L255.578,344.497 C254.944,344.548 254.343,344.616 253.692,344.649 L253.692,317.898 L246.475,317.898 L246.475,344.996 C242.88,344.827 239.36,344.421 235.858,343.888 C215.638,341.248 196.881,332.517 181.653,318.609 L200.849,299.421 L195.511,294.1 L177.101,312.509 C176.755,312.095 176.467,311.68 176.086,311.299 L175.223,312.179 C158.887,294.303 150.198,271.942 149.174,249.244 L176.281,249.244 L176.281,240.47 L151.069,240.47 C151.069,240.369 151.086,240.242 151.086,240.14 L149.174,240.14 C150.198,217.433 158.887,195.081 175.24,177.205 L176.408,178.398 C176.67,178.118 176.873,177.822 177.127,177.535 L195.181,195.631 L200.858,189.946 L181.678,170.767 C199.056,154.887 221.103,145.767 244.606,144.726 L244.606,145.225 C245.215,145.174 245.858,145.09 246.484,145.056 L246.484,171.807 L253.7,171.807 L253.7,144.726 C257.279,144.878 260.824,145.301 264.318,145.834 C284.546,148.491 303.286,157.222 318.497,171.113 L299.343,190.267 L304.682,195.623 L323.057,177.213 C323.421,177.611 323.717,178.042 324.055,178.44 L324.952,177.552 C340.815,194.937 349.944,216.942 350.993,240.479 L323.878,240.479 L323.878,249.252 L349.132,249.252 L349.132,249.235 z" fill="url(#Gradient_12)"/>
    </g>
  </g>
</svg>
